<?xml version="1.0" encoding="utf-8"?>
<!-- Generator: Adobe Illustrator 26.0.0, SVG Export Plug-In . SVG Version: 6.00 Build 0)  -->
<svg version="1.1" id="Layer_1" xmlns="http://www.w3.org/2000/svg" xmlns:xlink="http://www.w3.org/1999/xlink" x="0px" y="0px"
	 viewBox="0 0 1001 326" style="enable-background:new 0 0 1001 326;" xml:space="preserve">
<style type="text/css">
	.st0{fill:#363049;}
	.st1{enable-background:new    ;}
	.st2{fill:#6B6B6B;}
	.st3{fill:#58595B;}
	.st4{fill:#2193D2;}
	.st5{fill:none;stroke:#000000;stroke-width:0.3;stroke-miterlimit:10;}
</style>
<g>
	<path class="st0" d="M23.8,58.5c-0.7-1.2-1.4-2.6-1.8-4.6s-0.9-3.8-0.9-6c0-3.8,0.9-6.7,2.5-8.4c1.6-1.7,3.9-2.6,6.4-2.6h61.5
		c0.7,1.2,1.4,2.6,1.8,4.6c0.5,1.9,0.9,3.8,0.9,6c0,3.8-0.9,6.7-2.5,8.4c-1.6,1.7-3.6,2.6-6.4,2.6H69.6v68.6c-1.1,0.2-2.7,0.5-5,1
		c-2,0.2-4.3,0.5-6.4,0.5c-2,0-4.1-0.2-5.7-0.5s-3-1-4.1-1.7c-1.1-1-2-2.2-2.5-3.6c-0.5-1.7-0.9-3.6-0.9-6.2V59H23.8
		C23.8,59,23.8,58.5,23.8,58.5z M100.8,56.6c0.9-0.2,2.5-0.5,4.3-1c2-0.2,4.1-0.5,6.4-0.5c2,0,3.9,0.2,5.5,0.5
		c1.6,0.2,3.2,1,4.3,1.7c1.1,1,2,2.2,2.5,3.6c0.7,1.4,0.9,3.4,0.9,6v31.9c0,4.1,0.9,7,2.7,8.6c1.8,1.7,4.6,2.6,8.2,2.6
		c2,0,3.9-0.2,5.2-0.5c1.4-0.5,2.5-0.7,3.2-1.2V56.6c0.9-0.2,2.5-0.5,4.3-1c2-0.2,4.1-0.5,6.4-0.5c2,0,3.9,0.2,5.5,0.5
		c1.6,0.2,3.2,1,4.3,1.7c1.1,1,2,2.2,2.5,3.6c0.7,1.4,0.9,3.4,0.9,6V112c0,5-2,8.6-5.9,11c-3.2,2.2-7.3,3.8-11.8,4.8
		c-4.6,1.2-9.3,1.7-14.8,1.7c-5,0-9.8-0.5-14.1-1.7c-4.3-1.2-8-3.1-10.9-5.5c-3.2-2.4-5.5-5.5-7.3-9.6c-1.6-3.8-2.5-8.6-2.5-14.2
		L100.8,56.6L100.8,56.6z M206.5,102.9c0,2.6,0.7,4.3,2.3,5.5c1.6,1.2,3.9,1.7,6.6,1.7c1.4,0,3,0,4.3-0.2c1.6-0.2,2.7-0.7,3.9-1
		c0.9,1.2,1.6,2.4,2,3.6c0.7,1.2,0.9,2.9,0.9,4.8c0,3.8-1.4,6.7-4.1,9.1s-7.3,3.6-14.1,3.6c-8.2,0-14.6-1.9-19.1-6
		c-4.3-3.8-6.6-10.3-6.6-19.2V41.2c1.1-0.2,2.5-0.5,4.3-1c2-0.5,4.1-0.5,6.1-0.5c4.1,0,7.3,0.7,9.6,2.4c2.3,1.4,3.4,4.8,3.4,9.6v9.6
		h18.4c0.5,1.2,1.1,2.4,1.6,4.1s0.9,3.4,0.9,5.3c0,3.4-0.7,6-2.3,7.7c-1.4,1.4-3.4,2.2-5.7,2.2h-12.8L206.5,102.9L206.5,102.9z
		 M308.9,91.6c0,6.2-0.9,11.5-2.7,16.6c-1.8,4.8-4.3,8.6-7.5,12c-3.2,3.4-7.1,5.8-11.6,7.4s-9.6,2.6-15,2.6c-5.5,0-10.5-1-15-2.6
		s-8.4-4.3-11.6-7.7c-3.2-3.4-5.7-7.4-7.5-12.2s-2.7-10.1-2.7-16.1c0-5.8,0.9-11,2.7-15.8c1.8-4.8,4.3-8.6,7.5-12
		c3.2-3.4,7.3-6,11.6-7.7c4.6-1.7,9.6-2.6,15-2.6s10.5,1,15,2.9c4.6,1.7,8.4,4.3,11.6,7.7c3.2,3.4,5.9,7.2,7.5,12
		C308,80.6,308.9,85.8,308.9,91.6z M259.7,91.6c0,6,1.1,10.8,3.2,13.9c2.3,3.1,5.2,4.8,9.3,4.8c4.1,0,6.8-1.7,9.1-4.8
		c2-3.4,3.2-7.9,3.2-13.7s-1.1-10.6-3.2-13.7c-2-3.4-5.2-4.8-9.1-4.8c-3.9,0-7.1,1.7-9.1,4.8C260.9,81,259.7,85.6,259.7,91.6z
		 M344.7,127.3c-0.9,0.2-2.5,0.5-4.6,1c-2,0.2-4.1,0.5-6.1,0.5s-3.9-0.2-5.7-0.5c-1.6-0.2-3-1-4.1-1.7c-1.1-1-2-2.2-2.7-3.6
		c-0.5-1.7-0.9-3.6-0.9-6V72.6c0-2.2,0.5-4.3,1.1-5.8c0.9-1.7,2-3.1,3.4-4.6c1.6-1.2,3.4-2.4,5.5-3.4c2.3-1.2,4.6-1.9,7.3-2.9
		c2.5-0.7,5.2-1.4,8-1.7c2.7-0.5,5.5-0.7,8.2-0.7c4.6,0,8,1,10.7,2.9c2.7,1.7,3.9,4.8,3.9,8.9c0,1.4-0.2,2.9-0.5,4.1
		c-0.5,1.2-0.9,2.4-1.4,3.6c-2,0-4.1,0-6.1,0.2c-2,0.2-4.1,0.5-6.1,1c-2,0.5-3.9,1-5.7,1.4c-1.6,0.5-3.2,1-4.3,1.4L344.7,127.3
		L344.7,127.3z M378,35.4c0-3.8,1.1-7,3.4-9.6c2.5-2.6,5.7-3.8,9.6-3.8s7.1,1.2,9.3,3.8c2.5,2.6,3.6,5.8,3.6,9.6s-1.1,7-3.6,9.6
		c-2.3,2.6-5.5,3.8-9.3,3.8s-7.1-1.2-9.6-3.8C379.1,42.4,378,39.3,378,35.4z M403,127.3c-1.1,0.2-2.5,0.5-4.6,0.7
		c-2,0.5-4.1,0.5-6.1,0.5c-2,0-3.9-0.2-5.7-0.5c-1.6-0.2-3-1-4.1-1.7c-1.1-1-2-2.2-2.7-3.6c-0.5-1.7-0.9-3.6-0.9-6V56.3
		c1.1-0.2,2.5-0.5,4.6-0.7c2-0.5,4.1-0.5,6.1-0.5s3.9,0.2,5.5,0.5c1.6,0.2,3.2,1,4.3,1.7c1.1,1,2,2.2,2.5,3.6c0.7,1.4,0.9,3.4,0.9,6
		v60.5H403z M447.7,111.5c1.6,0,3.4-0.2,5.2-0.5c2-0.5,3.4-1,4.3-1.4V97.8l-10.2,1c-2.7,0.2-4.8,0.7-6.4,1.7c-1.6,1-2.5,2.4-2.5,4.6
		c0,1.9,0.7,3.6,2,4.8C441.7,111,444.2,111.5,447.7,111.5z M446.5,53.2c5,0,9.6,0.5,13.9,1.7s7.7,2.9,10.7,5c3,2.2,5.2,5,6.8,8.4
		c1.6,3.4,2.5,7.4,2.5,12v33.1c0,2.6-0.7,4.8-2,6.5s-3,2.9-4.8,4.1c-6.1,3.8-14.8,5.8-25.7,5.8c-5,0-9.6-0.5-13.4-1.4
		c-3.9-1-7.3-2.4-10.2-4.6c-2.7-1.9-5-4.6-6.6-7.7c-1.6-3.1-2.3-6.7-2.3-10.8c0-6.7,1.8-12,5.7-15.8c3.9-3.6,9.8-6,18-6.7l18.4-2.2
		v-1c0-2.9-1.1-4.8-3.6-6c-2.3-1.2-5.7-1.9-10.2-1.9c-3.6,0-7.1,0.5-10.5,1.2c-3.4,0.7-6.4,1.7-9.1,2.9c-1.1-1-2.3-2.2-3.2-4.1
		c-0.9-1.9-1.4-3.8-1.4-5.8c0-2.6,0.5-4.6,1.6-6c1.1-1.7,3-2.9,5.5-4.1c2.7-1.2,5.9-1.9,9.6-2.4C439.7,53.4,443.1,53.2,446.5,53.2z
		 M519.2,127.3c-1.1,0.2-2.5,0.5-4.6,0.7c-2,0.5-4.1,0.5-6.1,0.5s-3.9-0.2-5.7-0.5c-1.6-0.2-3-1-4.1-1.7c-1.1-0.7-2-2.2-2.7-3.6
		c-0.5-1.7-0.9-3.6-0.9-6V30.6c1.1-0.2,2.5-0.5,4.6-0.7c2-0.5,4.1-0.5,6.1-0.5c2,0,3.9,0.2,5.5,0.5c1.6,0.2,3.2,1,4.3,1.7
		c1.1,0.7,2,2.2,2.5,3.6c0.7,1.4,0.9,3.4,0.9,6v86.1H519.2z M592.1,106c0,7.4-2.7,13.4-8,17.8c-5.2,4.3-13.2,6.5-23.7,6.5
		c-3.9,0-7.5-0.2-10.9-1c-3.4-0.7-6.4-1.4-8.7-2.6c-2.3-1.2-4.3-2.9-5.7-4.8c-1.4-1.9-2-4.1-2-6.7c0-2.4,0.5-4.3,1.4-6
		s2-3.1,3.4-4.1c2.7,1.7,5.9,3.1,9.3,4.3c3.6,1.2,7.7,1.7,12.3,1.7c3,0,5-0.5,6.6-1.4c1.6-1,2.5-2.2,2.5-3.6c0-1.4-0.5-2.4-1.6-3.4
		c-1.1-0.7-3-1.4-5.7-1.9l-4.3-1c-8.2-1.7-14.3-4.3-18.2-7.9c-3.9-3.6-5.9-8.9-5.9-15.6c0-3.6,0.7-7,2.3-9.8
		c1.6-2.9,3.6-5.5,6.4-7.4c2.7-1.9,5.9-3.6,9.8-4.6c3.9-1.2,8-1.7,12.8-1.7c3.4,0,6.6,0.2,9.8,1c3.2,0.5,5.7,1.2,8,2.4
		s4.1,2.6,5.2,4.3c1.4,1.7,2,3.6,2,6c0,2.2-0.5,4.3-1.4,6c-0.7,1.7-1.8,2.9-3,4.1c-0.7-0.5-1.8-1-3.4-1.4c-1.6-0.5-3.2-1.2-5-1.4
		c-1.8-0.5-3.6-1-5.5-1.2c-1.8-0.2-3.4-0.5-5-0.5c-3.2,0-5.5,0.5-7.3,1.2c-1.6,0.7-2.5,1.9-2.5,3.4c0,1.2,0.5,1.9,1.4,2.6
		c0.9,0.7,2.7,1.4,5.2,1.9l4.3,1c9.1,2.2,15.5,5.3,19.1,9.1C590.2,95.2,592.1,100,592.1,106z M693.6,37.6c0.7,1.2,1.1,2.6,1.6,4.6
		c0.5,1.7,0.9,3.6,0.9,5.5c0,3.8-0.9,6.7-2.5,8.4c-1.6,1.7-3.6,2.4-6.1,2.4h-29.6v16.8h30.7c0.7,1.2,1.4,2.6,1.8,4.3
		c0.5,1.7,0.9,3.6,0.9,5.5c0,3.8-0.9,6.5-2.5,8.2c-1.6,1.7-3.6,2.4-6.1,2.4h-24.6v31.2c-1.1,0.2-2.7,0.5-5,1c-2,0.2-4.3,0.5-6.4,0.5
		c-2,0-4.1-0.2-5.7-0.5c-1.6-0.2-3-1-4.1-1.7c-1.1-1-2-2.2-2.5-3.6c-0.5-1.4-0.9-3.6-0.9-6.2V51.8c0-4.3,1.1-7.7,3.4-10.1
		c2.3-2.4,5.5-3.6,9.6-3.6h47.1V37.6L693.6,37.6z M727.8,127.3c-0.9,0.2-2.5,0.5-4.6,1c-2,0.2-4.1,0.5-6.1,0.5c-2,0-3.9-0.2-5.7-0.5
		c-1.6-0.2-3-1-4.1-1.7s-2-2.2-2.7-3.6c-0.5-1.7-0.9-3.6-0.9-6V72.6c0-2.2,0.5-4.3,1.1-5.8c0.9-1.7,2-3.1,3.4-4.6
		c1.6-1.2,3.4-2.4,5.5-3.4c2.3-1.2,4.6-1.9,7.3-2.9c2.5-0.7,5.2-1.4,8-1.7c2.7-0.5,5.5-0.7,8.2-0.7c4.6,0,8,1,10.7,2.9
		c2.7,1.7,3.9,4.8,3.9,8.9c0,1.4-0.2,2.9-0.5,4.1c-0.5,1.2-0.9,2.4-1.4,3.6c-2,0-4.1,0-6.1,0.2c-2,0.2-4.1,0.5-6.1,1
		c-2,0.5-3.9,1-5.7,1.4c-1.6,0.5-3.2,1-4.3,1.4v50.1L727.8,127.3L727.8,127.3z M795.5,130c-5.5,0-10.7-0.7-15.5-2.4
		c-4.8-1.7-8.9-4.1-12.3-7.4c-3.4-3.4-6.1-7.4-8.2-12.2c-2-5-3-10.8-3-17.3s0.9-12,3-16.8c2-4.8,4.8-8.6,8-11.5
		c3.2-3.1,7.1-5.3,11.2-6.7c4.3-1.4,8.7-2.2,13-2.2c5,0,9.6,0.7,13.4,2.4c4.1,1.7,7.7,3.8,10.5,6.5c3,2.9,5.2,6,6.8,9.8
		s2.5,8.2,2.5,12.7c0,3.4-0.9,6-2.7,7.7s-4.3,2.9-7.5,3.4l-34.8,5.5c1.1,3.4,3.2,5.8,6.4,7.4c3.2,1.7,6.8,2.4,10.9,2.4
		c3.9,0,7.5-0.5,10.9-1.4c3.4-1.2,6.4-2.4,8.4-3.6c1.6,1,2.7,2.4,3.9,4.1c1.1,1.7,1.6,3.6,1.6,5.5c0,4.6-2,7.7-5.9,9.8
		c-3,1.7-6.4,2.9-10.2,3.4C802.3,129.5,798.6,130,795.5,130z M791.4,71.7c-2.3,0-4.3,0.5-5.9,1.2c-1.6,0.7-3,1.9-3.9,3.1
		c-1.1,1.2-1.8,2.6-2.5,4.1c-0.5,1.4-0.7,3.1-0.9,4.6l24.1-4.1c-0.2-1.9-1.4-3.8-3.2-6C797.5,72.6,795,71.7,791.4,71.7z
		 M865.8,111.5c1.6,0,3.4-0.2,5.2-0.5c2-0.5,3.4-1,4.3-1.4V97.8l-10.2,1c-2.7,0.2-4.8,0.7-6.4,1.7c-1.6,1-2.5,2.4-2.5,4.6
		c0,1.9,0.7,3.6,2,4.8C859.9,111,862.2,111.5,865.8,111.5z M864.7,53.2c5,0,9.6,0.5,13.9,1.7c4.3,1.2,7.7,2.9,10.7,5
		c3,2.2,5.2,5,6.8,8.4s2.5,7.4,2.5,12v33.1c0,2.6-0.7,4.8-2,6.5s-3,2.9-4.8,4.1c-6.1,3.8-14.6,5.8-25.7,5.8c-5,0-9.6-0.5-13.4-1.4
		c-3.9-1-7.3-2.4-10.2-4.6c-2.7-1.9-5-4.6-6.6-7.7c-1.6-3.1-2.3-6.7-2.3-10.8c0-6.7,1.8-12,5.7-15.8c3.9-3.6,9.8-6,18-6.7l18.4-2.2
		v-1c0-2.9-1.1-4.8-3.6-6c-2.3-1.2-5.7-1.9-10.2-1.9c-3.6,0-7.1,0.5-10.5,1.2c-3.4,0.7-6.4,1.7-9.1,2.9c-1.1-1-2.3-2.2-3.2-4.1
		c-0.9-1.9-1.4-3.8-1.4-5.8c0-2.6,0.5-4.6,1.6-6c1.1-1.7,3-2.9,5.5-4.1c2.7-1.2,5.9-1.9,9.6-2.4C857.9,53.4,861.3,53.2,864.7,53.2z
		 M980,114.4c-0.5,4.6-1.8,8.2-3.9,10.8c-2,2.4-5,3.6-9.1,3.6c-3,0-5.7-0.7-8-2.2c-2.3-1.7-4.8-4.3-7.5-7.9l-13.9-18.5v27.1
		c-1.1,0.2-2.5,0.5-4.6,0.7c-2,0.5-4.1,0.5-6.1,0.5c-2,0-3.9-0.2-5.7-0.5c-1.6-0.2-3-1-4.1-1.7c-1.1-1-2-2.2-2.7-3.6
		c-0.5-1.7-0.9-3.6-0.9-6V30.9c1.1-0.2,2.5-0.5,4.6-1c2-0.5,4.1-0.5,6.1-0.5c2,0,3.9,0.2,5.5,0.5s3.2,1,4.3,1.7c1.1,1,2,2.2,2.5,3.6
		c0.7,1.4,0.9,3.4,0.9,6v39.1l24.1-26.2c4.8,0,8.9,1.2,11.6,3.4c3,2.2,4.6,5,4.6,8.6c0,1.4-0.2,2.9-0.7,4.1
		c-0.5,1.2-1.1,2.4-2.3,3.6c-0.9,1.2-2.3,2.6-3.9,4.1c-1.6,1.4-3.2,3.1-5.2,4.8l-8.2,7.4L980,114.4z"/>
	<g class="st1">
		<path class="st2" d="M198.3,203.8h12.4c2.4,0,4.2,0.4,5.5,1.2c1.3,0.8,2.1,2,2.6,3.5c0.4,1.5,0.7,3.4,0.7,5.9
			c0,2.3-0.2,4.2-0.6,5.7c-0.4,1.5-1.3,2.7-2.6,3.6s-3.2,1.3-5.6,1.3h-6.4v10.7h-5.9V203.8z M208.6,219.9c1.5,0,2.6-0.1,3.3-0.4
			c0.7-0.3,1.1-0.8,1.3-1.5c0.2-0.7,0.3-1.9,0.3-3.5c0-1.6-0.1-2.8-0.3-3.5c-0.2-0.7-0.6-1.2-1.3-1.5c-0.6-0.3-1.7-0.4-3.2-0.4h-4.6
			v11H208.6z"/>
		<path class="st2" d="M226.3,235c-1.3-0.7-2.2-1.8-2.5-3.4c-0.4-1.6-0.6-4.2-0.6-7.7c0-3.6,0.2-6.2,0.6-7.7
			c0.4-1.6,1.2-2.7,2.5-3.4c1.3-0.7,3.5-1,6.5-1c3,0,5.1,0.3,6.5,1c1.3,0.7,2.2,1.8,2.5,3.4s0.6,4.2,0.6,7.7c0,3.5-0.2,6.1-0.6,7.7
			c-0.4,1.6-1.2,2.7-2.5,3.4c-1.3,0.7-3.5,1-6.5,1C229.8,236,227.6,235.7,226.3,235z M235.6,230.9c0.5-0.3,0.8-0.9,1-1.9
			c0.1-0.9,0.2-2.7,0.2-5.2c0-2.6-0.1-4.3-0.2-5.2c-0.1-0.9-0.4-1.5-0.9-1.8c-0.5-0.3-1.5-0.5-2.8-0.5s-2.3,0.2-2.9,0.5
			c-0.5,0.3-0.8,0.9-1,1.8c-0.1,0.9-0.2,2.6-0.2,5.2c0,2.5,0.1,4.3,0.2,5.2s0.4,1.5,1,1.9c0.5,0.3,1.5,0.5,2.9,0.5
			C234.1,231.3,235.1,231.2,235.6,230.9z"/>
		<path class="st2" d="M264.6,235.6l-3.4-14.2h-0.4l-3.4,14.2h-6.8l-5.7-23.6h5.6l3.6,17.1h0.3l4.1-17.1h5.3l4.1,17.1h0.4l3.5-17.1
			h5.5l-5.7,23.6H264.6z"/>
		<path class="st2" d="M298.2,225.6h-12.9c0,1.8,0.1,3.1,0.3,3.9c0.2,0.7,0.7,1.2,1.4,1.5c0.8,0.3,2.1,0.4,4,0.4
			c2,0,4.2-0.1,6.5-0.4v4.3c-0.9,0.2-2.1,0.4-3.5,0.5s-2.9,0.2-4.2,0.2c-3.1,0-5.3-0.4-6.7-1.2c-1.4-0.8-2.3-2-2.7-3.6
			s-0.6-4.1-0.6-7.3c0-3.2,0.2-5.6,0.6-7.2s1.3-2.9,2.7-3.7c1.4-0.8,3.5-1.2,6.3-1.2c2.8,0,4.8,0.4,6.1,1.2c1.2,0.8,2,2,2.3,3.6
			c0.3,1.6,0.5,4.1,0.5,7.4V225.6z M286.7,216.7c-0.5,0.3-0.9,0.8-1,1.5c-0.2,0.7-0.3,2-0.3,3.7h7.6c0-1.7-0.1-2.9-0.3-3.7
			c-0.2-0.8-0.6-1.3-1.1-1.5c-0.5-0.2-1.3-0.4-2.3-0.4C288,216.2,287.2,216.4,286.7,216.7z"/>
		<path class="st2" d="M303.3,212h5.2l0.2,4.1h0.4c0.5-1.7,1.3-2.8,2.3-3.5c1.1-0.6,2.5-1,4.3-1v5.6c-1.8,0-3.1,0.3-4.1,0.8
			c-1,0.5-1.7,1.4-2.1,2.5c-0.4,1.2-0.6,2.8-0.6,4.9v10.2h-5.6V212z"/>
		<path class="st2" d="M336.9,225.6H324c0,1.8,0.1,3.1,0.3,3.9c0.2,0.7,0.7,1.2,1.4,1.5c0.8,0.3,2.1,0.4,4,0.4c2,0,4.2-0.1,6.5-0.4
			v4.3c-0.9,0.2-2.1,0.4-3.5,0.5s-2.9,0.2-4.2,0.2c-3.1,0-5.3-0.4-6.7-1.2c-1.4-0.8-2.3-2-2.7-3.6s-0.6-4.1-0.6-7.3
			c0-3.2,0.2-5.6,0.6-7.2s1.3-2.9,2.7-3.7c1.4-0.8,3.5-1.2,6.3-1.2c2.8,0,4.8,0.4,6.1,1.2c1.2,0.8,2,2,2.3,3.6
			c0.3,1.6,0.5,4.1,0.5,7.4V225.6z M325.4,216.7c-0.5,0.3-0.9,0.8-1,1.5c-0.2,0.7-0.3,2-0.3,3.7h7.6c0-1.7-0.1-2.9-0.3-3.7
			c-0.2-0.8-0.6-1.3-1.1-1.5c-0.5-0.2-1.3-0.4-2.3-0.4C326.8,216.2,325.9,216.4,325.4,216.7z"/>
		<path class="st2" d="M344.2,234.9c-1-0.7-1.8-1.9-2.2-3.7c-0.5-1.7-0.7-4.2-0.7-7.4c0-3.1,0.2-5.6,0.7-7.3s1.2-3,2.2-3.7
			c1-0.8,2.4-1.1,4.2-1.1c1.5,0,2.7,0.2,3.7,0.7c1,0.4,1.8,1.2,2.3,2.3h0.3v-13.4h5.5v34.4H355l-0.2-2.9h-0.3
			c-0.9,2.2-2.9,3.3-6.1,3.3C346.6,236,345.2,235.6,344.2,234.9z M353,230.6c0.5-0.3,0.9-0.7,1.1-1.4c0.2-0.6,0.3-1.3,0.4-2.1
			c0.1-0.8,0.1-2,0.1-3.3c0-1.3,0-2.3-0.1-3c0-0.8-0.2-1.4-0.3-1.9c-0.2-0.8-0.6-1.4-1.1-1.7c-0.5-0.3-1.3-0.5-2.3-0.5
			c-1.3,0-2.2,0.1-2.7,0.4c-0.5,0.3-0.8,0.9-1,1.9c-0.2,0.9-0.3,2.6-0.3,4.9c0,2.3,0.1,4,0.3,4.9c0.2,0.9,0.5,1.6,1,1.8
			c0.5,0.3,1.4,0.4,2.7,0.4C351.7,231.1,352.5,230.9,353,230.6z"/>
		<path class="st2" d="M384,235.3c-1.1-0.5-1.9-1.3-2.4-2.6h-0.3l-0.2,2.9h-5.2v-34.4h5.6v13.4h0.3c0.6-1.1,1.3-1.8,2.3-2.3
			s2.2-0.7,3.7-0.7c1.8,0,3.2,0.4,4.2,1.1s1.7,2,2.2,3.7c0.4,1.7,0.7,4.2,0.7,7.3c0,3.2-0.2,5.6-0.7,7.4c-0.5,1.7-1.2,3-2.2,3.7
			c-1,0.7-2.4,1.1-4.3,1.1C386.3,236,385.1,235.8,384,235.3z M388,230.6c0.5-0.3,0.8-0.9,1-1.8c0.2-0.9,0.3-2.6,0.3-4.9
			c0-2.3-0.1-3.9-0.3-4.9c-0.2-0.9-0.5-1.6-1-1.9c-0.5-0.3-1.4-0.4-2.7-0.4c-0.9,0-1.6,0.1-2.1,0.3s-0.9,0.6-1.1,1.2
			c-0.3,0.5-0.5,1.2-0.6,2.1s-0.1,2.1-0.1,3.6c0,1.5,0,2.6,0.1,3.5c0.1,0.8,0.3,1.5,0.5,2.1c0.2,0.6,0.6,1,1.1,1.3
			c0.5,0.2,1.2,0.4,2.1,0.4C386.6,231.1,387.5,230.9,388,230.6z"/>
		<path class="st2" d="M401.3,244.6v-4.3c0.7,0,1.2,0,1.5,0l4.4,0c1.8,0,3.1-0.2,3.9-0.5s1.3-0.9,1.5-1.6s0.3-2.1,0.3-4v-1.6h-0.3
			c-0.5,1-1.2,1.8-2.2,2.3c-1,0.5-2.3,0.8-3.9,0.8c-1.9,0-3.3-0.3-4.2-1c-0.9-0.7-1.5-1.6-1.9-3c-0.3-1.3-0.5-3.1-0.5-5.5V212h5.6
			v12.5c0,2.1,0.1,3.5,0.2,4.3c0.1,0.8,0.4,1.3,0.9,1.6c0.5,0.2,1.3,0.4,2.4,0.4c1.2,0,2-0.2,2.6-0.6c0.5-0.4,0.9-1.1,1.1-2
			c0.2-0.9,0.3-2.3,0.3-4.1v-12h5.6v20.8c0,3.2-0.2,5.6-0.6,7.3c-0.4,1.6-1.3,2.9-2.7,3.7c-1.4,0.8-3.6,1.2-6.6,1.2
			C405.6,245,403.2,244.9,401.3,244.6z"/>
	</g>
	<g>
		<path class="st3" d="M459.9,270.6v-0.7c0.4,0,0.7-0.4,1.1-0.7c0,0,0.4-0.4,0.4-0.7v-0.4v-0.4l-8.3-23c-0.4-1.1-0.7-1.8-1.1-1.8
			c-0.4-0.4-0.7-0.7-1.4-0.7v-0.7h9.3v0.7c-0.4,0-0.7,0.4-1.1,0.7c0,0-0.4,0.4-0.4,0.7c0,0,0,0,0,0.4c0,0,0,0.4,0,0.7l5.7,17.6
			l5.7-17.6c0,0,0,0,0-0.4v-0.4c0-0.4,0-0.7-0.4-0.7c0,0-0.4-0.4-1.1-0.7v-0.7h10v0.7c-0.4,0-0.7,0.4-1.1,0.7c0,0-0.4,0.4-0.4,0.7
			c0,0,0,0,0,0.4c0,0,0,0.4,0,0.7l5.7,17.2l5.7-17.2c0,0,0,0,0-0.4v-0.4c0-0.4,0-0.7-0.4-0.7c0,0-0.4-0.4-1.1-0.7v-0.7h9v0.7
			c-0.7,0-1.1,0.4-1.4,0.7c-0.4,0.4-0.7,1.1-1.1,1.8l-7.9,23v0.4v0.4c0,0.4,0,0.7,0.4,0.7c0,0,0.4,0.4,1.1,0.7v0.7h-9.3v-0.7
			c0.7,0,0.7-0.4,1.1-0.7c0,0,0.4-0.4,0.4-0.7c0,0,0,0,0-0.4c0-0.4,0-0.4,0-0.4l-6.5-19.4l-6.5,19.4v0.4v0.4c0,0.4,0,0.7,0.4,0.7
			c0,0,0.7,0.4,1.1,0.7v0.7L459.9,270.6L459.9,270.6z"/>
		<path class="st3" d="M501.8,268.8l2.5-5.7l0.7,0.4l0,0v0.4c0,0.7,0.7,1.4,2.5,1.8c1.8,0.7,3.6,1.1,5.4,1.1c1.8,0,3.6-0.4,4.7-0.7
			c1.1-0.7,1.8-1.4,1.8-2.2c0-1.4-1.8-2.2-5.7-2.5c-1.4,0-2.5,0-3.6-0.4c-2.5-0.4-4.7-1.1-5.7-2.2c-1.4-1.1-1.8-2.5-1.8-4.7
			c0-2.5,1.1-4.3,2.9-5.7s4.7-2.2,7.5-2.2c2.2,0,4.3,0.4,6.8,1.4c0.4,0,0.7,0,0.7,0s0.7,0,1.4,0.7c0.7,0.4,1.1,0.7,1.4,0.7
			c0,0,0,0,0.4,0c0,0,0.4,0,0.4-0.4l0.7,0.4l-2.9,6.1l-0.7-0.4l0,0l0,0c0-0.7-0.7-1.4-2.5-2.2c-1.8-0.7-3.6-1.1-5.4-1.1
			c-1.8,0-2.9,0.4-3.9,0.7c-1.1,0.4-1.4,1.1-1.4,1.8c0,1.1,1.4,1.8,4.3,2.2c2.2,0,3.9,0.4,5.4,0.7c2.5,0.4,4.3,1.4,5.4,2.5
			c1.1,1.1,1.8,2.9,1.8,4.7c0,2.5-1.1,4.3-3.2,5.7c-2.2,1.4-5,2.5-8.3,2.5c-3.2,0-6.1-0.7-9.3-2.2c-0.7-0.4-0.7-0.4-1.1-0.4
			c-0.4,0-0.4,0-0.4,0s0,0,0,0.4L501.8,268.8z"/>
		<path class="st3" d="M557.1,260.6l0.7-0.4l3.9,6.5L561,267l-0.4-0.4c0,0,0,0-0.4,0c0,0-0.7,0.4-1.8,0.7c-3.9,2.5-8.3,3.9-12.2,3.9
			c-4.3,0-8.3-1.4-11.1-4.3c-2.9-2.9-4.3-6.5-4.3-10.8s1.4-7.9,4.7-11.1c2.9-2.9,7.2-4.3,11.8-4.3c2.5,0,5,0.4,7.5,1.4
			c2.5,1.1,3.9,1.4,3.9,1.4s0.4,0,0.7,0c0,0,0.4,0,0.7,0l0.7,0.4l-3.9,6.8l-0.7-0.4l0,0l0,0c0-0.7-1.1-1.8-2.9-2.5
			c-2.2-0.7-3.9-1.4-6.5-1.4c-2.9,0-5.4,1.1-7.5,2.9c-1.8,1.8-2.9,4.3-2.9,7.2c0,2.9,1.1,5.4,2.9,7.5c1.8,1.8,4.3,2.9,7.5,2.9
			c2.5,0,4.7-0.4,6.8-1.8c2.2-1.1,3.6-1.8,3.6-2.5v-0.4C557.5,260.9,557.5,260.9,557.1,260.6z"/>
		<path class="st3" d="M586.5,249.1c0-0.7,0-0.7-0.4-1.1c0,0-0.4-0.4-1.1-0.4v-0.7h7.9v0.7c-0.4,0-0.7,0.4-1.1,0.4
			c0,0-0.4,0.7-0.4,1.1V262c0,3.6-0.7,5.7-2.5,7.2c-1.8,1.4-4.7,2.2-9,2.2c-3.9,0-7.2-0.7-9-2.2c-1.8-1.4-2.5-3.9-2.5-7.2v-12.9
			c0-0.7,0-0.7-0.4-1.1c0,0-0.4-0.4-1.1-0.4v-0.7h7.9v0.7c-0.4,0-0.7,0.4-1.1,0.4c0,0-0.4,0.7-0.4,1.1v11.8c0,2.2,0.4,3.6,1.4,4.7
			c0.7,0.7,2.5,1.4,4.7,1.4s3.6-0.4,4.7-1.4c0.7-0.7,1.4-2.5,1.4-4.7v-11.8H586.5z"/>
		<path class="st3" d="M617.4,246.6c2.5,0,4.7,0.7,6.1,1.8c1.4,1.1,2.2,2.5,2.2,4.7c0,1.1-0.4,2.2-0.7,2.9c-0.4,0.7-1.4,1.4-2.5,2.2
			c1.4,0.7,2.5,1.4,2.9,2.5c0.7,1.1,0.7,2.2,0.7,3.6c0,2.2-0.7,3.9-2.5,5.4c-1.8,1.1-3.9,1.8-7.2,1.8h-15.1v-0.7
			c0.4,0,0.7-0.4,1.1-0.4c0,0,0.4-0.7,0.4-1.1v-19.4c0-0.7,0-0.7-0.4-1.1c0,0-0.4-0.4-1.1-0.4v-0.7L617.4,246.6L617.4,246.6z
			 M615.6,250.9L615.6,250.9h-7.5v5h7.9c1.4,0,2.5,0,2.9-0.7c0.7-0.4,1.1-1.1,1.1-1.8c0-1.1-0.4-1.4-1.1-1.8
			C618.8,251.2,617.4,250.9,615.6,250.9z M615.2,260.2L615.2,260.2h-7.2v6.5h6.8c2.2,0,3.9-0.4,4.7-0.7c0.7-0.4,1.4-1.4,1.4-2.5
			s-0.4-1.8-1.4-2.5C618.8,260.2,617.4,260.2,615.2,260.2z"/>
		<path class="st3" d="M654.7,246.6c0.7,0,0.7,0,1.1-0.4c0,0,0.4-0.4,0.4-1.1h0.7v7.5h-0.7c0-0.7-0.4-0.7-0.4-1.1
			c0,0-0.7-0.4-1.1-0.4h-13.6v4.7h8.6c0.7,0,0.7,0,1.1-0.4c0,0,0.4-0.4,0.4-1.1h0.7v6.8h-0.7c0-0.4-0.4-0.7-0.4-1.1
			c0,0-0.7-0.4-1.1-0.4h-8.6v5.4h14.4c0.7,0,0.7,0,1.1-0.4c0,0,0.4-0.7,0.4-1.1h0.7v7.5h-0.7c0-0.7-0.4-0.7-0.4-1.1
			c0,0-0.7-0.4-1.1-0.4h-20.8v-0.7c0.4,0,0.7-0.4,1.1-0.4c0-0.4,0.4-0.7,0.4-1.1v-19.4c0-0.7,0-0.7-0.4-1.1c0,0-0.7-0.4-1.1-0.4
			v-0.7L654.7,246.6L654.7,246.6z"/>
		<path class="st4" d="M682.3,246.6c-0.7,0-0.7,0-1.1,0.4c0,0-0.4,0.7-0.4,1.1h-0.7v-7.9h0.7c0,0.7,0.4,0.7,0.4,1.1
			c0,0,0.7,0.4,1.1,0.4h23c0.7,0,0.7,0,1.1-0.4c0.4-0.4,0.4-0.7,0.4-1.1h0.7v7.9h-0.7c0-0.7-0.4-0.7-0.4-1.1c0,0-0.7-0.4-1.1-0.4
			h-8.6v21.9c0,0.7,0,0.7,0.4,1.1c0,0,0.4,0.4,1.1,0.4v0.7h-8.6v-0.7c0.4,0,0.7-0.4,1.1-0.4c0,0,0.4-0.7,0.4-1.1v-21.9L682.3,246.6
			L682.3,246.6z"/>
		<path class="st4" d="M733.3,246.6c0.7,0,0.7,0,1.1-0.4c0,0,0.4-0.4,0.4-1.1h0.7v7.5h-0.7c0-0.7-0.4-0.7-0.4-1.1
			c0,0-0.7-0.4-1.1-0.4h-13.6v4.7h8.6c0.7,0,0.7,0,1.1-0.4c0,0,0.4-0.4,0.4-1.1h0.7v6.8h-0.7c0-0.4-0.4-0.7-0.4-1.1
			c0,0-0.7-0.4-1.1-0.4h-8.6v5.4H734c0.7,0,0.7,0,1.1-0.4c0,0,0.4-0.7,0.4-1.1h0.7v7.5h-0.7c0-0.7-0.4-0.7-0.4-1.1
			c0,0-0.7-0.4-1.1-0.4h-20.8v-0.7c0.4,0,0.7-0.4,1.1-0.4c0-0.4,0.4-0.7,0.4-1.1v-19.4c0-0.7,0-0.7-0.4-1.1c0,0-0.7-0.4-1.1-0.4
			v-0.7L733.3,246.6L733.3,246.6z"/>
		<path class="st4" d="M764.5,254.1l-0.7-0.4l0,0l0,0c0-0.7-0.7-1.4-2.5-1.8c-1.8-0.7-3.2-1.1-5-1.1c-2.5,0-4.3,0.7-6.1,2.2
			c-1.4,1.4-2.2,3.6-2.2,5.7c0,2.2,0.7,4.3,2.2,5.7c1.4,1.4,3.6,2.2,6.1,2.2c1.8,0,3.9-0.4,5.4-1.4c1.8-0.7,2.5-1.4,2.5-2.2
			c0,0,0,0,0-0.4c0-0.4,0-0.4,0-0.4l0.7-0.4l3.6,5.4l-0.7,0.4l-0.4-0.4c0,0,0,0-0.4,0c0,0-0.7,0.4-1.4,0.7c-3.6,2.2-6.8,3.2-10,3.2
			c-3.9,0-7.2-1.1-9.3-3.6c-2.5-2.5-3.9-5.4-3.9-9c0-3.6,1.4-6.8,3.9-9c2.5-2.5,5.7-3.6,10-3.6c2.2,0,3.9,0.4,6.5,1.1
			c2.2,0.7,3.2,1.1,3.6,1.1h0.4c0,0,0.4,0,0.7,0l0.7,0.4L764.5,254.1z"/>
		<path class="st4" d="M780.6,268.5c0,0.7,0,0.7,0.4,1.1c0,0,0.4,0.4,1.1,0.4v0.7h-7.9v-0.7c0.4,0,0.7-0.4,1.1-0.4
			c0,0,0.4-0.7,0.4-1.1v-19.4c0-0.7,0-0.7-0.4-1.1c0,0-0.4-0.4-1.1-0.4v-0.7h7.9v0.7c-0.4,0-0.7,0.4-1.1,0.4c0,0.4-0.4,0.7-0.4,1.1
			v6.5h12.6v-6.5c0-0.7,0-0.7-0.4-1.1c0,0-0.4-0.4-1.1-0.4v-0.7h7.9v0.7c-0.4,0-0.7,0.4-1.1,0.4c0,0-0.4,0.7-0.4,1.1v19.4
			c0,0.7,0,0.7,0.4,1.1c0,0,0.4,0.4,1.1,0.4v0.7h-7.9v-0.7c0.7,0,0.7-0.4,1.1-0.4c0-0.4,0.4-0.7,0.4-1.1v-8.3h-12.6V268.5
			L780.6,268.5z"/>
		<polygon class="st4" points="549.6,219.7 567.1,189.5 567.9,188.1 569.7,188.1 604.1,188.1 605.9,188.1 606.6,189.5 624.2,219.3 
			624.9,220.7 624.2,221.8 615.6,237.3 609.1,237.3 618.8,220.7 602.7,193.5 571.1,193.5 555.3,221.1 564.6,237.3 558.2,237.3 
			549.6,222.2 548.8,221.1 		"/>
		<polygon class="st4" points="445.9,219.7 463.5,189.5 464.2,188.1 465.6,188.1 500.4,188.1 502.2,188.1 502.9,189.5 520.5,219.3 
			521.2,220.7 520.5,221.8 511.9,237.3 505.4,237.3 514.8,220.7 499,193.5 467.4,193.5 451.3,221.1 460.9,237.3 454.5,237.3 
			445.9,222.2 444.8,221.1 		"/>
		<polygon class="st4" points="497.9,188.8 515.5,158.7 515.8,157.2 517.6,157.2 552.4,157.2 553.9,157.2 554.6,158.7 572.2,188.5 
			572.9,189.9 572.2,191.3 563.6,206.4 557.5,206.4 566.8,189.9 550.6,162.6 519.1,162.6 503.3,190.2 512.6,206.4 506.5,206.4 
			497.9,191.7 496.8,190.2 		"/>
		<polygon class="st4" points="497.9,191.3 515.5,221.5 515.8,223.3 517.6,223.3 552.4,223.3 553.9,223.3 554.6,221.5 572.2,192 
			572.9,190.2 572.2,189.2 563.6,174.1 557.5,174.1 566.8,190.2 550.6,217.5 519.1,217.5 503.3,190.2 512.6,174.1 506.5,174.1 
			497.9,188.8 496.8,190.2 		"/>
		<ellipse class="st5" cx="803.2" cy="239" rx="6.8" ry="6.8"/>
		<g class="st1">
			<path d="M800.4,243v-7.5h2.5c1.1,0,1.8,0,2.2,0.7c0.4,0.4,0.7,1.1,0.7,1.8c0,0.4,0,1.1-0.4,1.1c-0.4,0.4-0.7,0.7-1.1,0.7l1.8,3.6
				h-1.4l-1.4-2.9h-1.4v2.9C801.5,243,800.4,243,800.4,243z M801.8,238.7h1.1c0.4,0,0.7,0,1.1-0.4c0.4,0,0.4-0.4,0.4-0.7
				c0-0.4,0-0.7-0.4-0.7s-0.7-0.4-1.1-0.4h-1.1V238.7z"/>
		</g>
		<g>
			<g>
				<path class="st3" d="M610.6,290v-10.4h2.2V290c0,4.3,1.8,5.4,3.9,5.4c2.5,0,4.3-1.4,4.3-5.4v-10.4h2.2V290
					c0,5.7-2.9,7.5-6.5,7.5C613.4,297.9,610.6,295.7,610.6,290z"/>
				<path class="st3" d="M627.8,284.3h1.8v1.4l0,0c1.1-1.1,2.5-1.8,3.9-1.8c3.2,0,5,2.5,5,6.5c0,4.3-2.5,7.2-5.7,7.2
					c-1.1,0-2.5-0.7-3.6-1.4v2.2v4.3h-2.2v-18.3H627.8z M636.8,290.7c0-2.9-1.1-4.7-3.6-4.7c-1.1,0-2.2,0.7-3.6,1.8v6.8
					c1.1,1.1,2.5,1.4,3.2,1.4C635.3,295.7,636.8,293.9,636.8,290.7z"/>
				<path class="st3" d="M641.1,296.1l1.1-1.4c1.1,1.1,2.2,1.4,3.9,1.4s2.5-1.1,2.5-2.2c0-1.4-1.4-1.8-2.9-2.5
					c-1.8-0.7-3.9-1.4-3.9-3.6s1.8-3.6,4.7-3.6c1.8,0,2.9,0.7,3.9,1.4l-1.1,1.4c-1.1-0.7-1.8-1.1-2.9-1.1c-1.8,0-2.5,0.7-2.5,1.8
					s1.4,1.8,2.9,2.2c1.8,0.7,3.9,1.4,3.9,3.9c0,2.2-1.8,3.9-4.7,3.9C644.3,297.9,642.5,296.8,641.1,296.1z"/>
				<path class="st3" d="M653.6,278.5h2.2v12.9l0,0l5.4-6.8h2.5l-4.3,5.4l5,7.9h-2.5l-3.9-6.1l-2.5,2.9v3.6h-2.2L653.6,278.5
					L653.6,278.5z"/>
				<path class="st3" d="M666.5,280.3c0-0.7,0.7-1.4,1.4-1.4c0.7,0,1.4,0.7,1.4,1.4c0,0.7-0.7,1.4-1.4,1.4
					C667.3,281.7,666.5,281,666.5,280.3z M666.9,284.3h2.2v12.9h-2.2V284.3z"/>
				<path class="st3" d="M673.7,294.7v-16.5h2.2v16.5c0,0.7,0.4,1.1,0.7,1.1h0.4l0.4,1.8c-0.4,0-0.7,0.4-1.1,0.4
					C674.1,297.9,673.7,296.8,673.7,294.7z"/>
				<path class="st3" d="M680.5,294.7v-16.5h2.2v16.5c0,0.7,0.4,1.1,0.7,1.1h0.4l0.4,1.8c-0.4,0-0.7,0.4-1.1,0.4
					C681.2,297.9,680.5,296.8,680.5,294.7z"/>
				<path class="st3" d="M687,280.3c0-0.7,0.7-1.4,1.4-1.4c0.7,0,1.4,0.7,1.4,1.4c0,0.7-0.7,1.4-1.4,1.4
					C687.3,281.7,687,281,687,280.3z M687.3,284.3h2.2v12.9h-2.2V284.3z"/>
				<path class="st3" d="M693.8,284.3h1.8v1.8l0,0c1.1-1.1,2.5-2.2,4.3-2.2c2.9,0,3.9,1.8,3.9,5v8.3h-2.2v-7.9
					c0-2.5-0.7-3.6-2.5-3.6c-1.4,0-2.2,0.7-3.6,2.2v9.3h-2.2L693.8,284.3L693.8,284.3z"/>
				<path class="st3" d="M707.4,300c0-1.1,0.7-2.2,1.8-2.9l0,0c-0.7-0.4-1.1-1.1-1.1-2.2s0.7-1.8,1.4-2.5l0,0
					c-0.7-0.7-1.8-1.8-1.8-3.6c0-2.9,2.2-4.7,5-4.7c0.7,0,1.4,0,1.8,0.4h4.7v1.8h-2.5c0.7,0.7,1.1,1.4,1.1,2.5
					c0,2.9-2.2,4.7-4.7,4.7c-0.7,0-1.4,0-1.8-0.4c-0.4,0.4-0.7,0.7-0.7,1.4c0,0.7,0.7,1.4,2.2,1.4h2.5c2.9,0,4.7,1.1,4.7,3.2
					c0,2.5-2.5,4.7-6.5,4.7C709.6,303.3,707.4,302.2,707.4,300z M717.1,299.3c0-1.1-1.1-1.8-2.5-1.8h-2.2c-0.4,0-1.1,0-1.8,0
					c-1.1,0.7-1.4,1.4-1.4,2.2c0,1.4,1.4,2.2,3.6,2.2C715.7,301.8,717.1,300.8,717.1,299.3z M715.7,288.6c0-1.8-1.1-2.9-2.9-2.9
					c-1.4,0-2.9,1.1-2.9,2.9c0,1.8,1.1,3.2,2.9,3.2C714.3,291.8,715.7,290.7,715.7,288.6z"/>
				<path class="st3" d="M727.5,279.9h5.4c3.6,0,6.1,1.1,6.1,4.3c0,1.8-1.1,3.2-2.5,3.9l0,0c2.2,0.4,3.6,1.8,3.6,4.3
					c0,3.6-2.9,5-6.5,5h-5.7v-17.6H727.5z M732.2,287.1c2.9,0,4.3-1.1,4.3-2.9c0-2.2-1.4-2.9-3.9-2.9h-2.9v5.7H732.2z M732.9,295.7
					c2.9,0,4.7-1.1,4.7-3.6c0-2.2-1.8-3.2-4.7-3.2H730v6.5h2.9V295.7z"/>
				<path class="st3" d="M743,278.5h2.2v5.4v2.5c1.1-1.1,2.5-2.2,4.3-2.2c2.9,0,3.9,1.8,3.9,5v8.3h-2.2v-7.9c0-2.5-0.7-3.6-2.5-3.6
					c-1.4,0-2.2,0.7-3.6,2.2v9.3H743V278.5z"/>
				<path class="st3" d="M757,293.9c0-2.9,2.5-4.3,7.9-4.7c0-1.8-0.7-3.2-2.9-3.2c-1.4,0-2.9,0.7-3.9,1.4l-0.7-1.4
					c1.1-0.7,2.9-1.8,5-1.8c3.2,0,4.7,2.2,4.7,5.4v7.9h-1.8v-1.4l0,0c-1.1,1.1-2.9,1.8-4.3,1.8C758.4,297.9,757,296.5,757,293.9z
					 M764.9,294.3v-3.6c-4.3,0.7-5.7,1.4-5.7,3.2c0,1.4,1.1,2.2,2.2,2.2S763.4,295.4,764.9,294.3z"/>
				<path class="st3" d="M771,284.3h1.8v2.5l0,0c1.1-1.8,2.2-2.9,3.6-2.9c0.7,0,1.1,0,1.4,0.4l-0.4,1.8c-0.4,0-0.7-0.4-1.1-0.4
					c-1.1,0-2.5,0.7-3.2,2.9v8.3H771V284.3z"/>
				<path class="st3" d="M779.6,293.9c0-2.9,2.5-4.3,7.9-4.7c0-1.8-0.7-3.2-2.9-3.2c-1.4,0-2.9,0.7-3.9,1.4l-0.7-1.4
					c1.1-0.7,2.9-1.8,5-1.8c3.2,0,4.7,2.2,4.7,5.4v7.9h-1.8v-1.4l0,0c-1.1,1.1-2.9,1.8-4.3,1.8C781,297.9,779.6,296.5,779.6,293.9z
					 M787.5,294.3v-3.6c-4.3,0.7-5.7,1.4-5.7,3.2c0,1.4,1.1,2.2,2.2,2.2C785.3,296.1,786.4,295.4,787.5,294.3z"/>
				<path class="st3" d="M794.3,293.2V286h-1.8v-1.8h2.2l0.4-3.6h1.8v3.6h3.6v1.8h-3.6v7.2c0,1.4,0.7,2.5,2.2,2.5
					c0.4,0,1.1,0,1.4-0.4l0.4,1.8c-0.7,0.4-1.8,0.4-2.5,0.4C795.4,297.9,794.3,296.1,794.3,293.2z"/>
			</g>
		</g>
	</g>
</g>
</svg>
